# xmcd
#
# Track frame offsets: 
#        150
#        11151
#        22959
#        35664
#        47272
#        58249
#        68778
#        79264
#        90779
#        101720
#        113981
#        123604
#        133129
#        143709
#        157012
#        166992
#        179355
#
# Disc length: 2544 seconds
#
# Revision: 4
# Processed by: cddbd v1.5.2PL0 Copyright (c) Steve Scherf et al.
# Submitted via: ExactAudioCopy v1.0b3
#
DISCID=e609ee11
DTITLE=Gus Backus - Seine großen Erfolge
DYEAR=2007
DGENRE=Schlager
TTITLE0=Der Mann im Mond -61
TTITLE1=Damals -59
TTITLE2=Da sprach der alte Häuptling -61
TTITLE3=Brauner Bär und weiße Taube -61
TTITLE4=Linda -62
TTITLE5=Sieben süße Girls -60
TTITLE6=Das haben die Mädchen gern -63
TTITLE7=No Bier, no Wein, no Schnaps -62
TTITLE8=I bin a stiller Zecher -67
TTITLE9=(Er macht mich krank) Der Mondschein an der Donau -63
TTITLE10=Sauerkraut-Polka -61
TTITLE11=Wooden Heart (Muss I denn zum Städtele hinaus) -65
TTITLE12=Nix zu machen Fräulein -68
TTITLE13=Bohnen in die Ohren -66
TTITLE14=Wenn nur jede Woche mal der Erste wär' -63
TTITLE15=Rote Lippen soll man küssen -63
TTITLE16=Geier am Himmel -69
EXTD=YEAR: 2007
EXTT0=
EXTT1=
EXTT2=
EXTT3=
EXTT4=
EXTT5=
EXTT6=
EXTT7=
EXTT8=
EXTT9=
EXTT10=
EXTT11=
EXTT12=
EXTT13=
EXTT14=
EXTT15=
EXTT16=
PLAYORDER=
